<svg xmlns="http://www.w3.org/2000/svg" viewBox="0 0 512 512">
  <defs>
    <linearGradient id="bg" x1="0" y1="0" x2="1" y2="1">
      <stop offset="0" stop-color="#1a1030"/>
      <stop offset="1" stop-color="#0a0a0b"/>
    </linearGradient>
    <linearGradient id="fg" x1="0" y1="0" x2="1" y2="1">
      <stop offset="0" stop-color="#a78bfa"/>
      <stop offset="1" stop-color="#7c5cff"/>
    </linearGradient>
  </defs>
  <rect width="512" height="512" rx="104" fill="url(#bg)"/>
  <rect x="14" y="14" width="484" height="484" rx="94" fill="none" stroke="#7c5cff" stroke-opacity="0.35" stroke-width="10"/>
  <!-- hammer head -->
  <path fill="url(#fg)" d="M172 128h168a44 44 0 0 1 44 44v22a18 18 0 0 0 18 18h6a26 26 0 0 1 26 26v14a26 26 0 0 1-26 26h-6a18 18 0 0 0-18 18v0a26 26 0 0 1-26 26H172a26 26 0 0 1-26-26v-142a26 26 0 0 1 26-26z"/>
  <!-- handle -->
  <rect x="222" y="300" width="68" height="150" rx="24" fill="url(#fg)" opacity="0.9"/>
  <!-- spark -->
  <path fill="#e9dcff" d="M394 330l14 34 34 14-34 14-14 34-14-34-34-14 34-14z"/>
</svg>
